<svg id="logo" xmlns="http://www.w3.org/2000/svg" xmlns:xlink="http://www.w3.org/1999/xlink" viewBox="0 0 500 120">
  
    <style>
      .container {
        fill:white;
        transform: translate(10px, 5px);
      }
      .leaf-back {
        opacity: 1;
      }
      .face {
        fill: none;
      }

      .leaf-front {
        opacity: 0.9;
      }

      
      .text {
        font-size: 70px;
        font-family: Helvetica-Light, Helvetica;
        font-weight: 300;
        letter-spacing: -0.02em;
      }

      </style>
  <g class="container"> 
  <path class="leaf-back" d="M82.83,76A38.08,38.08,0,0,1,60.58,110.4a42.42,42.42,0,0,0-.65-4.26c-.25-.61.36-8.91,1.1-9.644s9.62-3.86,10.6-5.26c1.86-2.69,1.05-6.51-.58-7.66l-2.61-2.33.42-2.82a1.63,1.63,0,0,0-1.36-1.85L66,76.33l.27-1.48a1.75,1.75,0,0,0-1.41-2l-2.37-.43,1.07-4.79a1.78,1.78,0,0,0-1.42-2.14L51.66,63.61a7,7,0,0,1,.7-3.44s-3-.72-4.29-1.2c0,0-1.78-5-3.58-6.8-11.11-10.91-29.22-3.5-29.83-3.2,15.4-28,50-44.14,50-44.14C55.77,13.38,46.1,30.71,44.4,47A68.57,68.57,0,0,1,62.31,12.77a35,35,0,0,0,1.74,14.48A68.34,68.34,0,0,0,54,49,68.25,68.25,0,0,1,64.86,29.7a117.93,117.93,0,0,0,5.21,12.14A69.37,69.37,0,0,0,64.69,54.6a68,68,0,0,1,6-11.43C76.45,54.87,82.92,66.37,82.83,76Z" transform="translate(-7 -5)"/>
  <path class="face" d="M71.63,91.23c-1,1.4-9.86,4.52-10.6,5.26s-1.35,9-1.1,9.65a38,38,0,0,1,.65,4.26,37,37,0,0,1-15.46,3.33A37.7,37.7,0,0,1,7.42,76a55.16,55.16,0,0,1,7.22-26.8v0c.59-.28,18.72-7.72,29.84,3.2,1.8,1.76,3.58,6.8,3.58,6.8,1.33.48,4.29,1.2,4.29,1.2a7,7,0,0,0-.7,3.2l10.48,1.87a1.78,1.78,0,0,1,1.42,2.13l-1.07,4.8,2.37.43a1.75,1.75,0,0,1,1.41,2L66,76.33l1.5.24a1.63,1.63,0,0,1,1.36,1.85l-.42,2.82,2.61,2.33C72.68,84.72,73.49,88.54,71.63,91.23Z" transform="translate(-7 -5)"/>
  <path class="leaf-front" d="M24.28,71c0-37.65,40.41-66,40.41-66S7.41,31.78,7.41,76a37.72,37.72,0,0,0,50.41,35.5A41.24,41.24,0,0,1,24.28,71Z" transform="translate(-7 -5)"/>
   <text class="text" transform="translate(120 90)">LOMI SPA</text>

  </g>
</svg>
